# xmcd CD database file
#
# Track frame offsets:
#	150
#	17725
#	38152
#
# Disc length: 775 seconds
#
# Revision: 2
# Processed by: cddbd v1.4b41PL1 Copyright (c) Steve Scherf et al.
# Submitted via: Feurio! 1.60 - http://www.feurio.com
#
DISCID=17030503,1a030503
DTITLE=Todd Snider - Alright Guy
DYEAR=1900
DGENRE=
TTITLE0=Alright Guy
TTITLE1=Turn It Up
TTITLE2=You Think You Know Somebody
EXTD=
EXTT0=
EXTT1=
EXTT2=
PLAYORDER=
